<?xml version="1.0" encoding="utf-8"?>
<!-- Generator: Adobe Illustrator 23.0.1, SVG Export Plug-In . SVG Version: 6.00 Build 0)  -->
<svg version="1.1" xmlns="http://www.w3.org/2000/svg" xmlns:xlink="http://www.w3.org/1999/xlink" x="0px" y="0px"
	 viewBox="0 0 750 750" style="enable-background:new 0 0 750 750;" xml:space="preserve">
<style type="text/css">
	.st0{opacity:0.5;}
	.st1{fill:#C5B358;}
	.st2{fill:url(#SVGID_1_);}
	.st3{fill:#121212;}
</style>
<g id="Layer_1">
	<g>
		<g class="st0">
			<path class="st1" d="M377.3,176.56l-1.09-91.62c0-0.22-0.08-0.41-0.18-0.59l-0.12-14.68c0-0.5-0.4-0.9-0.9-0.9
				c-0.5,0-0.91,0.4-0.92,0.9l-0.12,14.68c-0.1,0.18-0.18,0.37-0.18,0.59l-1.09,91.62c0.77-0.01,1.53-0.03,2.3-0.03
				S376.54,176.55,377.3,176.56z"/>
			<path class="st1" d="M350.93,85.93c-0.07-0.65-0.64-1.14-1.3-1.09c-0.67,0.05-1.17,0.63-1.12,1.3l6.9,91.35
				c1.52-0.15,3.05-0.29,4.59-0.4L350.93,85.93z"/>
			<path class="st1" d="M401.49,86.14c0.05-0.65-0.43-1.23-1.09-1.3c-0.67-0.07-1.26,0.42-1.33,1.09L390,177.09
				c1.53,0.11,3.06,0.25,4.59,0.4L401.49,86.14z"/>
			<path class="st1" d="M451.24,95.13c0.16-0.64-0.21-1.29-0.85-1.47c-0.64-0.18-1.31,0.19-1.5,0.84l-24.75,88.16
				c1.49,0.38,2.97,0.78,4.45,1.19L451.24,95.13z"/>
			<path class="st1" d="M498.68,112.62c0.27-0.6,0.01-1.31-0.58-1.59c-0.6-0.29-1.33-0.04-1.62,0.57l-39.68,82.52
				c1.4,0.63,2.79,1.28,4.17,1.95L498.68,112.62z"/>
			<path class="st1" d="M542.36,138.08c0.37-0.54,0.24-1.28-0.29-1.67c-0.54-0.39-1.3-0.27-1.69,0.28l-53.43,74.41
				c1.27,0.87,2.52,1.75,3.77,2.64L542.36,138.08z"/>
			<path class="st1" d="M516.94,236.3l64.02-65.56c0.46-0.47,0.46-1.22,0-1.69c-0.47-0.48-1.24-0.49-1.71-0.02l-65.56,64.02
				C514.78,234.12,515.86,235.2,516.94,236.3z"/>
			<path class="st1" d="M613.29,209.61c0.53-0.38,0.67-1.12,0.29-1.67c-0.38-0.55-1.13-0.7-1.69-0.32l-75.66,51.65
				c0.9,1.25,1.78,2.5,2.64,3.77L613.29,209.61z"/>
			<path class="st1" d="M638.39,253.5c0.59-0.28,0.85-0.99,0.58-1.59c-0.28-0.61-0.99-0.88-1.6-0.61l-83.44,37.71
				c0.67,1.38,1.31,2.77,1.95,4.17L638.39,253.5z"/>
			<path class="st1" d="M655.48,301.08c0.63-0.18,1.01-0.83,0.85-1.47c-0.17-0.65-0.83-1.04-1.47-0.88l-88.73,22.65
				c0.41,1.48,0.81,2.96,1.19,4.45L655.48,301.08z"/>
			<path class="st1" d="M664.05,350.91c0.65-0.07,1.14-0.64,1.09-1.3c-0.05-0.67-0.63-1.17-1.3-1.12l-91.35,6.9
				c0.15,1.52,0.29,3.05,0.4,4.59L664.05,350.91z"/>
			<path class="st1" d="M663.84,401.47c0.65,0.05,1.23-0.43,1.3-1.09c0.07-0.67-0.42-1.26-1.09-1.33l-91.16-9.07
				c-0.11,1.53-0.25,3.06-0.4,4.59L663.84,401.47z"/>
			<path class="st1" d="M654.85,451.22c0.64,0.16,1.29-0.21,1.47-0.85c0.18-0.64-0.19-1.31-0.84-1.5l-88.16-24.75
				c-0.38,1.49-0.78,2.97-1.19,4.45L654.85,451.22z"/>
			<path class="st1" d="M637.36,498.66c0.6,0.27,1.31,0.01,1.59-0.58c0.29-0.6,0.04-1.33-0.57-1.62l-82.52-39.68
				c-0.63,1.4-1.28,2.79-1.95,4.17L637.36,498.66z"/>
			<path class="st1" d="M611.9,542.34c0.54,0.37,1.28,0.24,1.67-0.29c0.39-0.54,0.27-1.3-0.28-1.69l-74.41-53.43
				c-0.87,1.27-1.75,2.52-2.64,3.77L611.9,542.34z"/>
			<path class="st1" d="M513.68,516.92l65.56,64.02c0.47,0.46,1.22,0.46,1.69,0c0.48-0.47,0.49-1.24,0.02-1.71l-64.02-65.56
				C515.86,514.76,514.78,515.85,513.68,516.92z"/>
			<path class="st1" d="M301.1,94.5c-0.18-0.63-0.83-1.01-1.47-0.85c-0.65,0.17-1.04,0.83-0.88,1.47l22.65,88.73
				c1.48-0.41,2.96-0.81,4.45-1.19L301.1,94.5z"/>
			<path class="st1" d="M253.52,111.6c-0.28-0.59-0.99-0.85-1.59-0.58c-0.61,0.28-0.88,0.99-0.61,1.6l37.71,83.44
				c1.38-0.67,2.77-1.31,4.17-1.95L253.52,111.6z"/>
			<path class="st1" d="M209.63,136.69c-0.38-0.53-1.12-0.67-1.67-0.29c-0.55,0.38-0.7,1.13-0.32,1.69l51.65,75.66
				c1.25-0.9,2.5-1.78,3.77-2.64L209.63,136.69z"/>
			<path class="st1" d="M236.32,233.05l-65.56-64.02c-0.47-0.46-1.22-0.46-1.69,0c-0.48,0.47-0.49,1.24-0.02,1.71l64.02,65.56
				C234.14,235.2,235.22,234.12,236.32,233.05z"/>
			<path class="st1" d="M138.1,207.62c-0.54-0.37-1.28-0.24-1.67,0.29c-0.39,0.54-0.27,1.3,0.28,1.69l74.41,53.43
				c0.87-1.27,1.75-2.52,2.64-3.77L138.1,207.62z"/>
			<path class="st1" d="M112.64,251.3c-0.6-0.27-1.31-0.01-1.59,0.58c-0.29,0.6-0.04,1.33,0.57,1.62l82.52,39.68
				c0.63-1.4,1.28-2.79,1.95-4.17L112.64,251.3z"/>
			<path class="st1" d="M95.15,298.74c-0.64-0.16-1.29,0.21-1.47,0.85c-0.18,0.64,0.19,1.31,0.84,1.5l88.16,24.75
				c0.38-1.49,0.78-2.97,1.19-4.45L95.15,298.74z"/>
			<path class="st1" d="M86.16,348.5c-0.65-0.05-1.23,0.43-1.3,1.09c-0.07,0.67,0.42,1.26,1.09,1.33l91.16,9.07
				c0.11-1.53,0.25-3.06,0.4-4.59L86.16,348.5z"/>
			<path class="st1" d="M85.95,399.05c-0.65,0.07-1.14,0.64-1.09,1.3c0.05,0.67,0.63,1.17,1.3,1.12l91.35-6.9
				c-0.15-1.52-0.29-3.05-0.4-4.59L85.95,399.05z"/>
			<path class="st1" d="M94.52,448.88c-0.63,0.18-1.01,0.83-0.85,1.47c0.17,0.65,0.83,1.04,1.47,0.88l88.73-22.65
				c-0.41-1.48-0.81-2.96-1.19-4.45L94.52,448.88z"/>
			<path class="st1" d="M111.61,496.46c-0.59,0.28-0.85,0.99-0.58,1.59c0.28,0.61,0.99,0.88,1.6,0.61l83.44-37.71
				c-0.67-1.38-1.31-2.77-1.95-4.17L111.61,496.46z"/>
			<path class="st1" d="M136.71,540.35c-0.53,0.38-0.67,1.12-0.29,1.67c0.38,0.55,1.13,0.7,1.69,0.32l75.66-51.65
				c-0.9-1.25-1.78-2.5-2.64-3.77L136.71,540.35z"/>
			<path class="st1" d="M233.06,513.66l-64.02,65.56c-0.46,0.47-0.46,1.22,0,1.69c0.47,0.48,1.24,0.49,1.71,0.02l65.56-64.02
				C235.22,515.85,234.14,514.76,233.06,513.66z"/>
			<path class="st1" d="M428.91,74.46c0.08-0.49-0.24-0.95-0.73-1.04c-0.49-0.09-0.97,0.24-1.06,0.73L407.7,179.23
				c1.18,0.2,2.35,0.4,3.53,0.61L428.91,74.46z"/>
			<path class="st1" d="M480.28,88.39c0.17-0.47-0.07-0.98-0.54-1.16c-0.47-0.18-0.99,0.06-1.17,0.53L441.2,187.85
				c1.13,0.4,2.25,0.8,3.36,1.22L480.28,88.39z"/>
			<path class="st1" d="M528.44,111.03c0.24-0.43,0.1-0.98-0.33-1.23c-0.43-0.25-0.99-0.11-1.24,0.32l-54.18,92.09
				c1.04,0.59,2.07,1.19,3.1,1.8L528.44,111.03z"/>
			<path class="st1" d="M571.95,141.68c0.31-0.38,0.27-0.95-0.11-1.27c-0.38-0.33-0.96-0.28-1.28,0.1l-69.36,81.3
				c0.92,0.76,1.83,1.53,2.73,2.31L571.95,141.68z"/>
			<path class="st1" d="M609.47,179.43c0.38-0.32,0.43-0.89,0.11-1.27c-0.32-0.39-0.89-0.44-1.28-0.12l-82.44,68.02
				c0.78,0.91,1.55,1.81,2.31,2.73L609.47,179.43z"/>
			<path class="st1" d="M639.86,223.11c0.43-0.25,0.58-0.8,0.33-1.23c-0.25-0.44-0.8-0.59-1.24-0.34l-92.98,52.66
				c0.61,1.03,1.21,2.06,1.8,3.1L639.86,223.11z"/>
			<path class="st1" d="M662.21,271.41c0.46-0.17,0.71-0.69,0.54-1.16c-0.17-0.47-0.69-0.72-1.16-0.55l-100.69,35.71
				c0.42,1.12,0.82,2.24,1.22,3.36L662.21,271.41z"/>
			<path class="st1" d="M675.83,322.86c0.49-0.09,0.81-0.55,0.73-1.04c-0.08-0.5-0.55-0.83-1.05-0.75l-105.37,17.69
				c0.22,1.17,0.42,2.35,0.61,3.53L675.83,322.86z"/>
			<path class="st1" d="M680.31,374.07l-106.88-0.88c0.01,0.6,0.02,1.19,0.02,1.79c0,0.6-0.02,1.19-0.02,1.79l106.88-0.88
				c0.5,0,0.9-0.4,0.9-0.9C681.22,374.49,680.82,374.08,680.31,374.07z"/>
			<path class="st1" d="M675.52,428.9c0.49,0.08,0.95-0.24,1.04-0.73c0.09-0.49-0.24-0.97-0.73-1.06l-105.08-19.42
				c-0.2,1.18-0.4,2.36-0.61,3.53L675.52,428.9z"/>
			<path class="st1" d="M661.59,480.26c0.47,0.17,0.98-0.07,1.16-0.54c0.18-0.47-0.06-0.99-0.53-1.17l-100.09-37.36
				c-0.4,1.13-0.8,2.25-1.22,3.36L661.59,480.26z"/>
			<path class="st1" d="M638.96,528.43c0.43,0.24,0.98,0.1,1.23-0.33c0.25-0.43,0.11-0.99-0.32-1.25l-92.09-54.18
				c-0.59,1.04-1.19,2.07-1.8,3.1L638.96,528.43z"/>
			<path class="st1" d="M608.3,571.93c0.38,0.31,0.95,0.27,1.27-0.11c0.33-0.38,0.28-0.96-0.1-1.28l-81.3-69.36
				c-0.76,0.92-1.53,1.83-2.31,2.73L608.3,571.93z"/>
			<path class="st1" d="M570.56,609.45c0.32,0.38,0.89,0.43,1.27,0.11c0.39-0.32,0.44-0.89,0.12-1.28l-68.02-82.44
				c-0.91,0.78-1.81,1.55-2.73,2.31L570.56,609.45z"/>
			<path class="st1" d="M322.88,74.15c-0.09-0.49-0.55-0.81-1.04-0.73c-0.5,0.08-0.83,0.55-0.75,1.05l17.69,105.37
				c1.17-0.22,2.35-0.42,3.53-0.61L322.88,74.15z"/>
			<path class="st1" d="M271.43,87.77c-0.17-0.46-0.69-0.71-1.16-0.54c-0.47,0.17-0.72,0.69-0.55,1.16l35.71,100.69
				c1.12-0.42,2.24-0.82,3.36-1.22L271.43,87.77z"/>
			<path class="st1" d="M223.13,110.12c-0.25-0.43-0.8-0.58-1.23-0.33c-0.44,0.25-0.59,0.8-0.34,1.24L274.22,204
				c1.03-0.61,2.06-1.21,3.1-1.8L223.13,110.12z"/>
			<path class="st1" d="M179.44,140.51c-0.32-0.38-0.89-0.43-1.27-0.11c-0.39,0.32-0.44,0.89-0.12,1.28l68.02,82.44
				c0.91-0.78,1.81-1.55,2.73-2.31L179.44,140.51z"/>
			<path class="st1" d="M141.7,178.03c-0.38-0.31-0.95-0.27-1.27,0.11c-0.33,0.38-0.28,0.96,0.1,1.28l81.3,69.36
				c0.76-0.92,1.53-1.83,2.31-2.73L141.7,178.03z"/>
			<path class="st1" d="M111.04,221.54c-0.43-0.24-0.98-0.1-1.23,0.33c-0.25,0.43-0.11,0.99,0.32,1.25l92.09,54.18
				c0.59-1.04,1.19-2.07,1.8-3.1L111.04,221.54z"/>
			<path class="st1" d="M88.41,269.7c-0.47-0.17-0.98,0.07-1.16,0.54c-0.18,0.47,0.06,0.99,0.53,1.17l100.09,37.36
				c0.4-1.13,0.8-2.25,1.22-3.36L88.41,269.7z"/>
			<path class="st1" d="M74.48,321.07c-0.49-0.08-0.95,0.24-1.04,0.73c-0.09,0.49,0.24,0.97,0.73,1.06l105.08,19.42
				c0.2-1.18,0.4-2.35,0.61-3.53L74.48,321.07z"/>
			<path class="st1" d="M176.57,373.19l-106.88,0.88c-0.5,0-0.9,0.4-0.9,0.9c0,0.5,0.4,0.91,0.9,0.92l106.88,0.88
				c-0.01-0.6-0.02-1.19-0.02-1.79C176.55,374.38,176.56,373.79,176.57,373.19z"/>
			<path class="st1" d="M74.17,427.1c-0.49,0.09-0.81,0.55-0.73,1.04c0.08,0.5,0.55,0.83,1.05,0.75l105.37-17.69
				c-0.22-1.17-0.42-2.35-0.61-3.53L74.17,427.1z"/>
			<path class="st1" d="M87.79,478.55c-0.46,0.17-0.71,0.69-0.54,1.16c0.17,0.47,0.69,0.72,1.16,0.55l100.69-35.71
				c-0.42-1.12-0.82-2.24-1.22-3.36L87.79,478.55z"/>
			<path class="st1" d="M110.14,526.85c-0.43,0.25-0.58,0.8-0.33,1.23c0.25,0.44,0.8,0.59,1.24,0.34l92.98-52.66
				c-0.61-1.03-1.21-2.06-1.8-3.1L110.14,526.85z"/>
			<path class="st1" d="M140.53,570.54c-0.38,0.32-0.43,0.89-0.11,1.27c0.32,0.39,0.89,0.44,1.28,0.12l82.44-68.02
				c-0.78-0.91-1.55-1.81-2.31-2.73L140.53,570.54z"/>
			<path class="st1" d="M178.05,608.28c-0.31,0.38-0.27,0.95,0.11,1.27c0.38,0.33,0.96,0.28,1.28-0.1l69.36-81.3
				c-0.92-0.76-1.83-1.53-2.73-2.31L178.05,608.28z"/>
		</g>
		
			<linearGradient id="SVGID_1_" gradientUnits="userSpaceOnUse" x1="375" y1="203.6854" x2="375" y2="520.4764" gradientTransform="matrix(-1 0 0 -1 750 737.0635)">
			<stop  offset="0" style="stop-color:#C5B358;stop-opacity:0"/>
			<stop  offset="0.8625" style="stop-color:#C5B358;stop-opacity:0.6037"/>
			<stop  offset="1" style="stop-color:#C5B358;stop-opacity:0.7"/>
		</linearGradient>
		<circle class="st2" cx="375" cy="374.98" r="158.4"/>
		<g>
			<path class="st1" d="M272.08,531.55c3.05,2.01,3.73,6.1,1.63,9.09c-0.05,0.07-0.1,0.14-0.14,0.21
				c-5.95,8.57-12.94,16.47-21.74,22.06c-1.24,0.79-2.41,1.66-3.52,2.61c-6.31,5.42-6.46,15.16-0.37,20.83
				c0.08,0.07,0.12,0.11,0.12,0.11c0.82,0.76,1.68,1.51,2.63,2.25c7.11,5.57,17.95,10.78,31.91,15.13c0.15,0.05,0.31,0.09,0.46,0.14
				c23.12,7.13,54.69,11.87,91.96,11.87s68.83-4.74,91.96-11.87c0.15-0.05,0.31-0.09,0.46-0.14c13.96-4.34,24.8-9.56,31.91-15.13
				c0.95-0.74,1.81-1.5,2.63-2.25l0.13-0.12c6.09-5.67,5.93-15.4-0.38-20.82c-1.11-0.95-2.28-1.82-3.52-2.61
				c-8.8-5.59-15.8-13.49-21.74-22.06c-0.05-0.07-0.1-0.14-0.14-0.21c-2.11-2.99-1.41-7.08,1.64-9.1
				c52.37-34.55,86.47-94.64,84.4-162.4c-2.99-97.9-82.06-177.66-179.93-181.45c-106.71-4.13-194.84,81.48-194.84,187.29
				C187.57,440.35,221.21,498,272.08,531.55z M454.13,548.7c-24.7,16.77-54,25.95-85.25,24.6c-26.62-1.15-51.53-9.99-73-24.56
				c-1.79-1.22-0.23-3.98,1.74-3.08c21.46,9.79,45.06,15.63,69.87,16.6c30.34,1.18,59.18-4.91,84.92-16.66
				C454.41,544.7,455.94,547.47,454.13,548.7z M375,196.03c98.67,0,178.95,80.28,178.95,178.95c0,66.39-36.34,124.44-90.17,155.33
				c-4.05,2.33-8.21,4.49-12.45,6.5c-9.12,4.32-18.67,7.89-28.56,10.63c-15.21,4.22-31.23,6.49-47.77,6.49s-32.56-2.27-47.77-6.49
				c-9.89-2.74-19.43-6.31-28.56-10.63c-4.24-2.01-8.4-4.17-12.45-6.5c-53.83-30.89-90.17-88.94-90.17-155.33
				C196.05,276.31,276.33,196.03,375,196.03z"/>
			<path class="st1" d="M509.1,588.7c-0.71,0.79-1.48,1.56-2.3,2.33c-5.03,4.72-12.04,9.06-20.7,12.93
				c-0.02,0.01-0.03,0.01-0.05,0.02c-25.56,11.41-65.44,18.64-111.05,18.64s-85.49-7.22-111.05-18.64
				c-0.02-0.01-0.03-0.01-0.05-0.02c-8.66-3.87-15.67-8.22-20.7-12.93c-0.82-0.77-1.59-1.55-2.3-2.33c-1.15-1.28-2.15-2.58-3.02-3.9
				c-0.16,1.28-0.28,2.58-0.28,3.9v15.27c0,25.29,61.51,45.8,137.39,45.8s137.39-20.5,137.39-45.8V588.7c0-1.33-0.11-2.62-0.28-3.9
				C511.25,586.12,510.25,587.43,509.1,588.7z"/>
		</g>
		<g>
			<path class="st1" d="M315.88,303.2c-3.27-7.08-5.44-12.34-7.18-16.57c-5.53-13.45-6.1-14.85-22.98-25.6l-1.33-0.84l1.33-0.84
				c16.88-10.75,17.46-12.15,22.98-25.6c1.74-4.23,3.9-9.5,7.18-16.57l0.91-1.96l0.91,1.96c3.27,7.08,5.44,12.34,7.18,16.57
				c5.53,13.45,6.1,14.85,22.98,25.6l1.33,0.84l-1.33,0.84c-16.88,10.75-17.46,12.15-22.98,25.6c-1.74,4.23-3.9,9.5-7.18,16.57
				l-0.91,1.96L315.88,303.2z"/>
			<path class="st3" d="M316.79,217.59c13.91,30.06,8.12,28.33,30.53,42.59c-22.41,14.27-16.62,12.54-30.53,42.59
				c-13.91-30.06-8.12-28.33-30.53-42.59C308.66,245.92,302.88,247.65,316.79,217.59 M316.79,212.83l-1.82,3.92
				c-3.28,7.1-5.45,12.37-7.2,16.61c-5.53,13.46-5.98,14.56-22.6,25.13l-2.65,1.69l2.65,1.69c16.61,10.58,17.06,11.67,22.6,25.13
				c1.74,4.24,3.91,9.52,7.2,16.61l1.82,3.92l1.82-3.92c3.28-7.1,5.45-12.37,7.2-16.61c5.53-13.46,5.98-14.56,22.6-25.13l2.65-1.69
				l-2.65-1.69c-16.61-10.58-17.06-11.67-22.6-25.13c-1.74-4.24-3.91-9.52-7.2-16.61L316.79,212.83L316.79,212.83z"/>
		</g>
		<g>
			<path class="st1" d="M350.48,312.63c-4.94-9.09-5.77-9.93-14.86-14.86l-1.62-0.88l1.62-0.88c9.09-4.94,9.93-5.77,14.86-14.86
				l0.88-1.62l0.88,1.62c4.94,9.09,5.77,9.93,14.86,14.86l1.62,0.88l-1.62,0.88c-9.09,4.94-9.93,5.77-14.86,14.86l-0.88,1.62
				L350.48,312.63z"/>
			<path class="st3" d="M351.36,281.62c5.04,9.29,5.97,10.22,15.27,15.27c-9.29,5.04-10.22,5.97-15.27,15.27
				c-5.04-9.29-5.97-10.22-15.27-15.27C345.39,291.84,346.32,290.91,351.36,281.62 M351.36,277.43l-1.76,3.24
				c-4.85,8.94-5.53,9.61-14.46,14.46l-3.24,1.76l3.24,1.76c8.94,4.85,9.61,5.53,14.46,14.46l1.76,3.24l1.76-3.24
				c4.85-8.94,5.53-9.61,14.46-14.46l3.24-1.76l-3.24-1.76c-8.94-4.85-9.61-5.53-14.46-14.46L351.36,277.43L351.36,277.43z"/>
		</g>
	</g>
</g>
<g id="Layer_2">
</g>
</svg>
