<?xml version="1.0" encoding="utf-8"?>
<!-- Generator: Adobe Illustrator 23.0.1, SVG Export Plug-In . SVG Version: 6.00 Build 0)  -->
<svg version="1.1" id="Layer_1" xmlns="http://www.w3.org/2000/svg" xmlns:xlink="http://www.w3.org/1999/xlink" x="0px" y="0px"
	 viewBox="0 0 500 500" style="enable-background:new 0 0 500 500;" xml:space="preserve">
<style type="text/css">
	.st0{opacity:0.5;}
	.st1{fill:#C5B358;}
	.st2{fill:url(#SVGID_1_);}
	.st3{fill:#121212;}
</style>
<g>
	<g>
		<g class="st0">
			<path class="st1" d="M251.4,121.5L250.7,65c0-0.1,0-0.3-0.1-0.4l-0.1-9.1c0-0.3-0.2-0.6-0.6-0.6c-0.3,0-0.6,0.2-0.6,0.6l-0.1,9.1
				c-0.1,0.1-0.1,0.2-0.1,0.4l-0.7,56.5c0.5,0,0.9,0,1.4,0C250.5,121.5,251,121.5,251.4,121.5z"/>
			<path class="st1" d="M235.1,65.6c0-0.4-0.4-0.7-0.8-0.7c-0.4,0-0.7,0.4-0.7,0.8l4.3,56.4c0.9-0.1,1.9-0.2,2.8-0.2L235.1,65.6z"/>
			<path class="st1" d="M266.3,65.7c0-0.4-0.3-0.8-0.7-0.8c-0.4,0-0.8,0.3-0.8,0.7l-5.6,56.3c0.9,0.1,1.9,0.2,2.8,0.2L266.3,65.7z"
				/>
			<path class="st1" d="M297,71.3c0.1-0.4-0.1-0.8-0.5-0.9c-0.4-0.1-0.8,0.1-0.9,0.5l-15.3,54.4c0.9,0.2,1.8,0.5,2.7,0.7L297,71.3z"
				/>
			<path class="st1" d="M326.3,82.1c0.2-0.4,0-0.8-0.4-1c-0.4-0.2-0.8,0-1,0.4l-24.5,50.9c0.9,0.4,1.7,0.8,2.6,1.2L326.3,82.1z"/>
			<path class="st1" d="M353.3,97.8c0.2-0.3,0.1-0.8-0.2-1c-0.3-0.2-0.8-0.2-1,0.2l-33,45.9c0.8,0.5,1.6,1.1,2.3,1.6L353.3,97.8z"/>
			<path class="st1" d="M337.6,158.4l39.5-40.5c0.3-0.3,0.3-0.8,0-1c-0.3-0.3-0.8-0.3-1.1,0l-40.5,39.5
				C336.3,157,336.9,157.7,337.6,158.4z"/>
			<path class="st1" d="M397.1,141.9c0.3-0.2,0.4-0.7,0.2-1c-0.2-0.3-0.7-0.4-1-0.2l-46.7,31.9c0.6,0.8,1.1,1.5,1.6,2.3L397.1,141.9
				z"/>
			<path class="st1" d="M412.5,169c0.4-0.2,0.5-0.6,0.4-1c-0.2-0.4-0.6-0.5-1-0.4l-51.5,23.3c0.4,0.9,0.8,1.7,1.2,2.6L412.5,169z"/>
			<path class="st1" d="M423.1,198.4c0.4-0.1,0.6-0.5,0.5-0.9c-0.1-0.4-0.5-0.6-0.9-0.5l-54.8,14c0.3,0.9,0.5,1.8,0.7,2.7
				L423.1,198.4z"/>
			<path class="st1" d="M428.4,229.1c0.4,0,0.7-0.4,0.7-0.8c0-0.4-0.4-0.7-0.8-0.7l-56.4,4.3c0.1,0.9,0.2,1.9,0.2,2.8L428.4,229.1z"
				/>
			<path class="st1" d="M428.2,260.3c0.4,0,0.8-0.3,0.8-0.7c0-0.4-0.3-0.8-0.7-0.8l-56.3-5.6c-0.1,0.9-0.2,1.9-0.2,2.8L428.2,260.3z
				"/>
			<path class="st1" d="M422.7,291c0.4,0.1,0.8-0.1,0.9-0.5s-0.1-0.8-0.5-0.9l-54.4-15.3c-0.2,0.9-0.5,1.8-0.7,2.7L422.7,291z"/>
			<path class="st1" d="M411.9,320.3c0.4,0.2,0.8,0,1-0.4c0.2-0.4,0-0.8-0.4-1l-50.9-24.5c-0.4,0.9-0.8,1.7-1.2,2.6L411.9,320.3z"/>
			<path class="st1" d="M396.2,347.2c0.3,0.2,0.8,0.1,1-0.2c0.2-0.3,0.2-0.8-0.2-1l-45.9-33c-0.5,0.8-1.1,1.6-1.6,2.3L396.2,347.2z"
				/>
			<path class="st1" d="M335.6,331.6l40.5,39.5c0.3,0.3,0.8,0.3,1,0c0.3-0.3,0.3-0.8,0-1.1l-39.5-40.5
				C336.9,330.2,336.3,330.9,335.6,331.6z"/>
			<path class="st1" d="M204.4,70.9c-0.1-0.4-0.5-0.6-0.9-0.5c-0.4,0.1-0.6,0.5-0.5,0.9l14,54.8c0.9-0.3,1.8-0.5,2.7-0.7L204.4,70.9
				z"/>
			<path class="st1" d="M175,81.4c-0.2-0.4-0.6-0.5-1-0.4c-0.4,0.2-0.5,0.6-0.4,1l23.3,51.5c0.9-0.4,1.7-0.8,2.6-1.2L175,81.4z"/>
			<path class="st1" d="M147.9,96.9c-0.2-0.3-0.7-0.4-1-0.2c-0.3,0.2-0.4,0.7-0.2,1l31.9,46.7c0.8-0.6,1.5-1.1,2.3-1.6L147.9,96.9z"
				/>
			<path class="st1" d="M164.4,156.4L124,116.9c-0.3-0.3-0.8-0.3-1,0c-0.3,0.3-0.3,0.8,0,1.1l39.5,40.5
				C163.1,157.7,163.7,157,164.4,156.4z"/>
			<path class="st1" d="M103.8,140.7c-0.3-0.2-0.8-0.1-1,0.2c-0.2,0.3-0.2,0.8,0.2,1l45.9,33c0.5-0.8,1.1-1.6,1.6-2.3L103.8,140.7z"
				/>
			<path class="st1" d="M88.1,167.6c-0.4-0.2-0.8,0-1,0.4c-0.2,0.4,0,0.8,0.4,1l50.9,24.5c0.4-0.9,0.8-1.7,1.2-2.6L88.1,167.6z"/>
			<path class="st1" d="M77.3,196.9c-0.4-0.1-0.8,0.1-0.9,0.5c-0.1,0.4,0.1,0.8,0.5,0.9l54.4,15.3c0.2-0.9,0.5-1.8,0.7-2.7
				L77.3,196.9z"/>
			<path class="st1" d="M71.8,227.6c-0.4,0-0.8,0.3-0.8,0.7c0,0.4,0.3,0.8,0.7,0.8l56.3,5.6c0.1-0.9,0.2-1.9,0.2-2.8L71.8,227.6z"/>
			<path class="st1" d="M71.6,258.8c-0.4,0-0.7,0.4-0.7,0.8c0,0.4,0.4,0.7,0.8,0.7l56.4-4.3c-0.1-0.9-0.2-1.9-0.2-2.8L71.6,258.8z"
				/>
			<path class="st1" d="M76.9,289.6c-0.4,0.1-0.6,0.5-0.5,0.9c0.1,0.4,0.5,0.6,0.9,0.5l54.8-14c-0.3-0.9-0.5-1.8-0.7-2.7L76.9,289.6
				z"/>
			<path class="st1" d="M87.5,318.9c-0.4,0.2-0.5,0.6-0.4,1c0.2,0.4,0.6,0.5,1,0.4l51.5-23.3c-0.4-0.9-0.8-1.7-1.2-2.6L87.5,318.9z"
				/>
			<path class="st1" d="M102.9,346c-0.3,0.2-0.4,0.7-0.2,1c0.2,0.3,0.7,0.4,1,0.2l46.7-31.9c-0.6-0.8-1.1-1.5-1.6-2.3L102.9,346z"/>
			<path class="st1" d="M162.4,329.5L122.9,370c-0.3,0.3-0.3,0.8,0,1c0.3,0.3,0.8,0.3,1.1,0l40.5-39.5
				C163.7,330.9,163.1,330.2,162.4,329.5z"/>
			<path class="st1" d="M283.3,58.5c0-0.3-0.1-0.6-0.5-0.6c-0.3-0.1-0.6,0.1-0.7,0.5l-12,64.8c0.7,0.1,1.5,0.2,2.2,0.4L283.3,58.5z"
				/>
			<path class="st1" d="M315,67.1c0.1-0.3,0-0.6-0.3-0.7c-0.3-0.1-0.6,0-0.7,0.3l-23.1,61.8c0.7,0.2,1.4,0.5,2.1,0.8L315,67.1z"/>
			<path class="st1" d="M344.7,81.1c0.1-0.3,0.1-0.6-0.2-0.8c-0.3-0.2-0.6-0.1-0.8,0.2l-33.4,56.8c0.6,0.4,1.3,0.7,1.9,1.1
				L344.7,81.1z"/>
			<path class="st1" d="M371.5,100c0.2-0.2,0.2-0.6-0.1-0.8c-0.2-0.2-0.6-0.2-0.8,0.1l-42.8,50.2c0.6,0.5,1.1,0.9,1.7,1.4L371.5,100
				z"/>
			<path class="st1" d="M394.7,123.3c0.2-0.2,0.3-0.5,0.1-0.8c-0.2-0.2-0.5-0.3-0.8-0.1l-50.9,42c0.5,0.6,1,1.1,1.4,1.7L394.7,123.3
				z"/>
			<path class="st1" d="M413.4,150.2c0.3-0.2,0.4-0.5,0.2-0.8c-0.2-0.3-0.5-0.4-0.8-0.2l-57.4,32.5c0.4,0.6,0.7,1.3,1.1,1.9
				L413.4,150.2z"/>
			<path class="st1" d="M427.2,180.1c0.3-0.1,0.4-0.4,0.3-0.7c-0.1-0.3-0.4-0.4-0.7-0.3l-62.1,22c0.3,0.7,0.5,1.4,0.8,2.1
				L427.2,180.1z"/>
			<path class="st1" d="M435.6,211.8c0.3-0.1,0.5-0.3,0.5-0.6c0-0.3-0.3-0.5-0.6-0.5l-65,10.9c0.1,0.7,0.3,1.5,0.4,2.2L435.6,211.8z
				"/>
			<path class="st1" d="M438.4,243.4l-66-0.5c0,0.4,0,0.7,0,1.1s0,0.7,0,1.1l66-0.5c0.3,0,0.6-0.2,0.6-0.6
				C439,243.7,438.7,243.4,438.4,243.4z"/>
			<path class="st1" d="M435.5,277.2c0.3,0,0.6-0.1,0.6-0.5c0.1-0.3-0.1-0.6-0.5-0.7l-64.8-12c-0.1,0.7-0.2,1.5-0.4,2.2L435.5,277.2
				z"/>
			<path class="st1" d="M426.9,308.9c0.3,0.1,0.6,0,0.7-0.3s0-0.6-0.3-0.7l-61.8-23.1c-0.2,0.7-0.5,1.4-0.8,2.1L426.9,308.9z"/>
			<path class="st1" d="M412.9,338.7c0.3,0.1,0.6,0.1,0.8-0.2c0.2-0.3,0.1-0.6-0.2-0.8l-56.8-33.4c-0.4,0.6-0.7,1.3-1.1,1.9
				L412.9,338.7z"/>
			<path class="st1" d="M394,365.5c0.2,0.2,0.6,0.2,0.8-0.1c0.2-0.2,0.2-0.6-0.1-0.8l-50.2-42.8c-0.5,0.6-0.9,1.1-1.4,1.7L394,365.5
				z"/>
			<path class="st1" d="M370.7,388.7c0.2,0.2,0.5,0.3,0.8,0.1c0.2-0.2,0.3-0.5,0.1-0.8l-42-50.9c-0.6,0.5-1.1,1-1.7,1.4L370.7,388.7
				z"/>
			<path class="st1" d="M217.8,58.3c-0.1-0.3-0.3-0.5-0.6-0.5c-0.3,0-0.5,0.3-0.5,0.6l10.9,65c0.7-0.1,1.5-0.3,2.2-0.4L217.8,58.3z"
				/>
			<path class="st1" d="M186.1,66.7c-0.1-0.3-0.4-0.4-0.7-0.3c-0.3,0.1-0.4,0.4-0.3,0.7l22,62.1c0.7-0.3,1.4-0.5,2.1-0.8L186.1,66.7
				z"/>
			<path class="st1" d="M156.3,80.5c-0.2-0.3-0.5-0.4-0.8-0.2c-0.3,0.2-0.4,0.5-0.2,0.8l32.5,57.4c0.6-0.4,1.3-0.7,1.9-1.1
				L156.3,80.5z"/>
			<path class="st1" d="M129.3,99.3c-0.2-0.2-0.5-0.3-0.8-0.1c-0.2,0.2-0.3,0.5-0.1,0.8l42,50.9c0.6-0.5,1.1-1,1.7-1.4L129.3,99.3z"
				/>
			<path class="st1" d="M106,122.4c-0.2-0.2-0.6-0.2-0.8,0.1c-0.2,0.2-0.2,0.6,0.1,0.8l50.2,42.8c0.5-0.6,0.9-1.1,1.4-1.7L106,122.4
				z"/>
			<path class="st1" d="M87.1,149.3c-0.3-0.1-0.6-0.1-0.8,0.2c-0.2,0.3-0.1,0.6,0.2,0.8l56.8,33.4c0.4-0.6,0.7-1.3,1.1-1.9
				L87.1,149.3z"/>
			<path class="st1" d="M73.1,179c-0.3-0.1-0.6,0-0.7,0.3c-0.1,0.3,0,0.6,0.3,0.7l61.8,23.1c0.2-0.7,0.5-1.4,0.8-2.1L73.1,179z"/>
			<path class="st1" d="M64.5,210.7c-0.3,0-0.6,0.1-0.6,0.5c-0.1,0.3,0.1,0.6,0.5,0.7l64.8,12c0.1-0.7,0.2-1.5,0.4-2.2L64.5,210.7z"
				/>
			<path class="st1" d="M127.5,242.9l-66,0.5c-0.3,0-0.6,0.2-0.6,0.6c0,0.3,0.2,0.6,0.6,0.6l66,0.5c0-0.4,0-0.7,0-1.1
				S127.5,243.2,127.5,242.9z"/>
			<path class="st1" d="M64.4,276.1c-0.3,0.1-0.5,0.3-0.5,0.6c0,0.3,0.3,0.5,0.6,0.5l65-10.9c-0.1-0.7-0.3-1.5-0.4-2.2L64.4,276.1z"
				/>
			<path class="st1" d="M72.8,307.9c-0.3,0.1-0.4,0.4-0.3,0.7c0.1,0.3,0.4,0.4,0.7,0.3l62.1-22c-0.3-0.7-0.5-1.4-0.8-2.1L72.8,307.9
				z"/>
			<path class="st1" d="M86.6,337.7c-0.3,0.2-0.4,0.5-0.2,0.8c0.2,0.3,0.5,0.4,0.8,0.2l57.4-32.5c-0.4-0.6-0.7-1.3-1.1-1.9
				L86.6,337.7z"/>
			<path class="st1" d="M105.3,364.6c-0.2,0.2-0.3,0.5-0.1,0.8c0.2,0.2,0.5,0.3,0.8,0.1l50.9-42c-0.5-0.6-1-1.1-1.4-1.7L105.3,364.6
				z"/>
			<path class="st1" d="M128.5,387.9c-0.2,0.2-0.2,0.6,0.1,0.8c0.2,0.2,0.6,0.2,0.8-0.1l42.8-50.2c-0.6-0.5-1.1-0.9-1.7-1.4
				L128.5,387.9z"/>
		</g>
		
			<linearGradient id="SVGID_1_" gradientUnits="userSpaceOnUse" x1="499.9999" y1="104.6513" x2="499.9999" y2="-90.8487" gradientTransform="matrix(-1 0 0 1 750 237.0635)">
			<stop  offset="0" style="stop-color:#C5B358;stop-opacity:0"/>
			<stop  offset="0.8625" style="stop-color:#C5B358;stop-opacity:0.6037"/>
			<stop  offset="1" style="stop-color:#C5B358;stop-opacity:0.7"/>
		</linearGradient>
		<circle class="st2" cx="250" cy="244" r="97.7"/>
		<g>
			<path class="st1" d="M186.5,340.6c1.9,1.2,2.3,3.8,1,5.6c0,0-0.1,0.1-0.1,0.1c-3.7,5.3-8,10.2-13.4,13.6c-0.8,0.5-1.5,1-2.2,1.6
				c-3.9,3.3-4,9.4-0.2,12.9c0,0,0.1,0.1,0.1,0.1c0.5,0.5,1,0.9,1.6,1.4c4.4,3.4,11.1,6.7,19.7,9.3c0.1,0,0.2,0.1,0.3,0.1
				c14.3,4.4,33.7,7.3,56.7,7.3s42.5-2.9,56.7-7.3c0.1,0,0.2-0.1,0.3-0.1c8.6-2.7,15.3-5.9,19.7-9.3c0.6-0.5,1.1-0.9,1.6-1.4
				l0.1-0.1c3.8-3.5,3.7-9.5-0.2-12.8c-0.7-0.6-1.4-1.1-2.2-1.6c-5.4-3.4-9.8-8.3-13.4-13.6c0,0-0.1-0.1-0.1-0.1
				c-1.3-1.8-0.9-4.4,1-5.6c32.3-21.3,53.4-58.4,52.1-100.2c-1.8-60.4-50.6-109.6-111-112c-65.9-2.5-120.2,50.3-120.2,115.6
				C134.3,284.3,155.1,319.9,186.5,340.6z M298.8,351.2c-15.2,10.3-33.3,16-52.6,15.2c-16.4-0.7-31.8-6.2-45-15.2
				c-1.1-0.8-0.1-2.5,1.1-1.9c13.2,6,27.8,9.6,43.1,10.2c18.7,0.7,36.5-3,52.4-10.3C299,348.7,299.9,350.4,298.8,351.2z M250,133.5
				c60.9,0,110.4,49.5,110.4,110.4c0,41-22.4,76.8-55.6,95.9c-2.5,1.4-5.1,2.8-7.7,4c-5.6,2.7-11.5,4.9-17.6,6.6
				c-9.4,2.6-19.3,4-29.5,4c-10.2,0-20.1-1.4-29.5-4c-6.1-1.7-12-3.9-17.6-6.6c-2.6-1.2-5.2-2.6-7.7-4
				c-33.2-19.1-55.6-54.9-55.6-95.9C139.6,183.1,189.1,133.5,250,133.5z"/>
			<path class="st1" d="M332.8,375.9c-0.4,0.5-0.9,1-1.4,1.4c-3.1,2.9-7.4,5.6-12.8,8c0,0,0,0,0,0c-15.8,7-40.4,11.5-68.5,11.5
				s-52.8-4.5-68.5-11.5c0,0,0,0,0,0c-5.3-2.4-9.7-5.1-12.8-8c-0.5-0.5-1-1-1.4-1.4c-0.7-0.8-1.3-1.6-1.9-2.4
				c-0.1,0.8-0.2,1.6-0.2,2.4v9.4c0,15.6,38,28.3,84.8,28.3s84.8-12.7,84.8-28.3v-9.4c0-0.8-0.1-1.6-0.2-2.4
				C334.1,374.3,333.5,375.1,332.8,375.9z"/>
		</g>
		<g>
			<path class="st1" d="M213.5,199.7c-2-4.4-3.4-7.6-4.4-10.2c-3.4-8.3-3.8-9.2-14.2-15.8l-0.8-0.5l0.8-0.5
				c10.4-6.6,10.8-7.5,14.2-15.8c1.1-2.6,2.4-5.9,4.4-10.2l0.6-1.2l0.6,1.2c2,4.4,3.4,7.6,4.4,10.2c3.4,8.3,3.8,9.2,14.2,15.8
				l0.8,0.5l-0.8,0.5c-10.4,6.6-10.8,7.5-14.2,15.8c-1.1,2.6-2.4,5.9-4.4,10.2l-0.6,1.2L213.5,199.7z"/>
			<path class="st3" d="M214.1,146.8c8.6,18.6,5,17.5,18.8,26.3c-13.8,8.8-10.3,7.7-18.8,26.3c-8.6-18.6-5-17.5-18.8-26.3
				C209.1,164.3,205.5,165.4,214.1,146.8 M214.1,143.9l-1.1,2.4c-2,4.4-3.4,7.6-4.4,10.3c-3.4,8.3-3.7,9-13.9,15.5l-1.6,1l1.6,1
				c10.3,6.5,10.5,7.2,13.9,15.5c1.1,2.6,2.4,5.9,4.4,10.3l1.1,2.4l1.1-2.4c2-4.4,3.4-7.6,4.4-10.3c3.4-8.3,3.7-9,13.9-15.5l1.6-1
				l-1.6-1c-10.3-6.5-10.5-7.2-13.9-15.5c-1.1-2.6-2.4-5.9-4.4-10.3L214.1,143.9L214.1,143.9z"/>
		</g>
		<g>
			<path class="st1" d="M234.9,205.5c-3-5.6-3.6-6.1-9.2-9.2l-1-0.5l1-0.5c5.6-3,6.1-3.6,9.2-9.2l0.5-1l0.5,1c3,5.6,3.6,6.1,9.2,9.2
				l1,0.5l-1,0.5c-5.6,3-6.1,3.6-9.2,9.2l-0.5,1L234.9,205.5z"/>
			<path class="st3" d="M235.4,186.4c3.1,5.7,3.7,6.3,9.4,9.4c-5.7,3.1-6.3,3.7-9.4,9.4c-3.1-5.7-3.7-6.3-9.4-9.4
				C231.7,192.7,232.3,192.1,235.4,186.4 M235.4,183.8l-1.1,2c-3,5.5-3.4,5.9-8.9,8.9l-2,1.1l2,1.1c5.5,3,5.9,3.4,8.9,8.9l1.1,2
				l1.1-2c3-5.5,3.4-5.9,8.9-8.9l2-1.1l-2-1.1c-5.5-3-5.9-3.4-8.9-8.9L235.4,183.8L235.4,183.8z"/>
		</g>
	</g>
</g>
<text transform="matrix(1 0 0 1 -143 -66)" style="font-family:'MyriadPro-Regular'; font-size:12px;">Lorem ipsum</text>
</svg>
